# xmcd
#
# Track frame offsets:
#	150
#	14030
#	31760
#	46380
#	63470
#	74595
#	92352
#	111657
#	126430
#	141190
#	157852
#	173665
#	189037
#	202542
#
# Disc length: 2978
#
# Revision: 1
# Processed by: cddbd v1.5.1PL0 Copyright (c) Steve Scherf et al.
# Submitted via: VisiTrax 2.9.3.171 - For more info visit www.synapsa.com
# Normalized: r0:DSETVAR1
#
DISCID=b90ba00e
DTITLE=Various Artist - Mr Music Country 11-96
DYEAR=1900
DGENRE=
TTITLE0=David Ball - I've Got My Baby On My Mind
TTITLE1=Randy Travis - Highway Junkie
TTITLE2=Victoria Shaw - Good As Gone
TTITLE3=Don Edwards - Rose Of Old Pawnee
TTITLE4=John Michael Montgomery - Sold (The Grundy County Auction Incident)
TTITLE5=Randy West - Rose Elene
TTITLE6=Mandy Barnett - Baby Don't You Know
TTITLE7=Neal McCoy - Me Too
TTITLE8=Joe Diamond - Love Me Goodbye
TTITLE9=Woody Lee - Get Over It
TTITLE10=Travis Tritt - Draggin' My Heart Around
TTITLE11=Shannan Campbell - There's Gonna Be a Party Tonight
TTITLE12=Karen Wheeler - Somebody Hold Me
TTITLE13=Michael Martin Murphey - Cowboy Logic
EXTD=
EXTT0=
EXTT1=
EXTT2=
EXTT3=
EXTT4=
EXTT5=
EXTT6=
EXTT7=
EXTT8=
EXTT9=
EXTT10=
EXTT11=
EXTT12=
EXTT13=
PLAYORDER=
